PathFileType	4	(X/Y/Z)	Walk6.trc
DataRate	CameraRate	NumFrames	NumMarkers	Units	OrigDataRate	OrigDataStartFrame	OrigNumFrames
200.000000	200.000000	9	59	mm	200.000000	385	600
Frame#	Times		LFHD		RFHD		CLAV		STRN		LASI		RASI		RACR1		RUA1		RElbow		RFA1		RWRR		RWRU		RCAR		LACR1		LUA1		LElbow		LFA1		LWRR		RTH2		RTB1		RTB2		LTH1		LTH3		LTH2		LTH4		LMFC		LTB1		LTB2		LTB4		LMT1		LLFC		LCAR		LTB3		LWRU		RTB4		RTB3		RTH3		RMFC		RMMAL		RTH4		RLFC		RMT1		RToe		RTH1		LBHD		RElbowM		RCAL		LMT5		LToe		RBack		RPSI		C7		T10		LPSI		LMMAL		LLMAL		LCAL		LElbowM		RBHD
			X1	Y1	Z1	X2	Y2	Z2	X3	Y3	Z3	X4	Y4	Z4	X5	Y5	Z5	X6	Y6	Z6	X7	Y7	Z7	X8	Y8	Z8	X9	Y9	Z9	X10	Y10	Z10	X11	Y11	Z11	X12	Y12	Z12	X13	Y13	Z13	X14	Y14	Z14	X15	Y15	Z15	X16	Y16	Z16	X17	Y17	Z17	X18	Y18	Z18	X19	Y19	Z19	X20	Y20	Z20	X21	Y21	Z21	X22	Y22	Z22	X23	Y23	Z23	X24	Y24	Z24	X25	Y25	Z25	X26	Y26	Z26	X27	Y27	Z27	X28	Y28	Z28	X29	Y29	Z29	X30	Y30	Z30	X31	Y31	Z31	X32	Y32	Z32	X33	Y33	Z33	X34	Y34	Z34	X35	Y35	Z35	X36	Y36	Z36	X37	Y37	Z37	X38	Y38	Z38	X39	Y39	Z39	X40	Y40	Z40	X41	Y41	Z41	X42	Y42	Z42	X43	Y43	Z43	X44	Y44	Z44	X45	Y45	Z45	X46	Y46	Z46	X47	Y47	Z47	X48	Y48	Z48	X49	Y49	Z49	X50	Y50	Z50	X51	Y51	Z51	X52	Y52	Z52	X53	Y53	Z53	X54	Y54	Z54	X55	Y55	Z55	X56	Y56	Z56	X57	Y57	Z57	X58	Y58	Z58	X59	Y59	Z59

385	1.925	277.49	1633.3	-5.6996	278.97	1636.5	93.632	294.66	1376	53.531	363.85	1219.9	44.048	210.31	961.36	-136.42	286.97	944.05	220.71	184.74	1456.1	229.04	133.72	1297.6	347.41	112.77	1149.2	397.65	108.69	993.38	415.68	99.034	870.82	349.77	93.288	879.48	430.89	97.549	786.39	399.93	164.52	1437	-122.12	166.03	1267.4	-216.53	202.95	1111.8	-277.71	288.14	1003.1	-287	393.48	927.33	-225.69	338.4	714.83	228.09	450.62	402.45	144.8	442.88	309.11	193.3	97.439	730.91	-154.92	72.593	562.79	-134.27	142.85	640.28	-134.68	84.545	647.9	-144.11	71.023	465.82	25.339	35.015	340.3	-61.171	-49.303	286.88	-88.709	-16.762	278.18	-36.389	-127.72	34.784	15.535	32.656	484.02	-127.3	451.5	863.88	-256.84	-76.907	218.73	-14.024	364.73	887.13	-281.32	460.98	316.67	135.04	471.14	231.66	125.4	332.74	609.73	230.71	344.42	500.24	69.278	461.54	92.308	63.609	291.36	683.56	246.1	361.73	500.59	222.42	595.78	56.384	100.13	631.08	73.027	135.25	247.98	757.28	260.49	132.82	1545.6	-12.708	49.72	1089.1	301.23	375.56	40.153	94.3	-198.13	35.717	-52.896	-82.765	23.855	-26.42	37.216	1336.1	175.62	-0.57612	996.15	117.95	95.046	1450.3	62.07	35.651	1134.8	72.274	-7.9587	1011	34.554	-208.69	142.39	83.35	-243.95	145.53	0.78545	-295.16	151.02	62.702	183.6	1031.3	-181.93	149.29	1556.8	134.98
386	1.93	284.38	1633.7	-4.2388	285.87	1636.6	95.093	301.75	1376.2	54.765	371.02	1220.3	45.018	218.16	961.76	-135.52	294.27	944.6	220.75	191.73	1455.7	230.41	141.07	1296.8	348.31	120.49	1148.2	398.26	116.67	992.38	416.13	107.24	869.84	350.11	101.51	878.45	431.23	106.14	785.47	400.25	171.64	1437.5	-120.87	172.24	1268	-215.51	208	1112.2	-276.8	292.57	1003.1	-286.39	397.75	926.83	-225.45	345.53	715.63	228.62	456.73	401.89	145.24	447.92	308.64	193.68	105.57	731.03	-155.21	81.091	562.75	-135.46	151.14	640.42	-135.35	92.865	647.95	-144.88	79.81	465.35	23.77	42.043	340.46	-62.936	-43.094	288.36	-90.354	-10.608	279.1	-38.083	-127.23	34.628	15.816	41.175	484.13	-128.91	455.36	863.11	-256.81	-71.512	220.45	-15.695	368.61	886.72	-280.95	465.94	316	135.36	474.91	230.88	125.61	340.2	610.53	231.57	351.69	501.34	69.967	463.11	91.736	63.639	298.62	684.29	246.76	369.05	501	223.18	597.05	53.123	99.849	632.9	69.1	134.79	255.05	757.94	260.99	139.75	1545.8	-11.289	57.607	1088.1	301.81	376.37	40.92	94.517	-196.77	37.188	-52.958	-83.109	23.709	-26.206	44.302	1335.9	176.67	6.615	996.23	118.11	102.14	1450.5	63.413	42.709	1134.9	72.407	-0.67134	1010.8	34.446	-204.2	146.03	81.782	-239.57	149.65	-0.66581	-290.1	156.7	61.248	190.17	1032	-180.37	156.31	1556.9	136.41
387	1.935	291.26	1634	-2.7865	292.76	1636.9	96.544	308.8	1376.5	55.974	378.15	1220.7	45.96	225.99	962.24	-134.63	301.5	945.29	220.83	198.7	1455.4	231.75	148.45	1296	349.18	128.25	1147.4	398.85	124.73	991.49	416.57	115.58	868.96	350.44	109.84	877.52	431.57	114.88	784.65	400.56	178.75	1438.1	-119.63	178.41	1268.6	-214.49	212.99	1112.6	-275.88	296.88	1003.2	-285.78	401.86	926.29	-225.22	352.57	716.4	229.22	462.7	401.33	145.66	452.78	308.14	194.01	113.84	731.21	-155.5	89.825	562.75	-136.7	159.61	640.65	-136.03	101.38	648.05	-145.69	88.866	464.91	22.125	49.376	340.69	-64.805	-36.565	289.91	-92.102	-4.1157	280.09	-39.893	-126.62	34.522	16.091	49.973	484.28	-130.6	459	862.28	-256.78	-65.77	222.24	-17.481	372.3	886.3	-280.58	470.75	315.33	135.63	478.54	230.11	125.75	347.47	611.28	232.43	359.11	502.49	70.536	464.54	91.22	63.597	305.76	685	247.45	376.18	501.32	223.91	598.18	50.097	99.475	634.55	65.458	134.22	262.05	758.62	261.53	146.66	1546.1	-9.8794	65.573	1087.1	302.36	377.12	41.64	94.705	-195.17	38.803	-53.064	-83.395	23.531	-26.027	51.358	1335.9	177.7	13.775	996.34	118.22	109.22	1450.8	64.731	49.744	1135.1	72.534	6.6019	1010.6	34.276	-199.31	149.72	80.112	-234.79	153.84	-2.2177	-284.58	162.47	59.688	196.47	1032.7	-178.84	163.31	1557.1	137.84
388	1.94	298.12	1634.5	-1.3475	299.63	1637.2	97.981	315.82	1376.8	57.157	385.23	1221.2	46.871	233.8	962.78	-133.73	308.66	946.13	220.97	205.65	1455.2	233.06	155.85	1295.4	350.03	136.05	1146.6	399.41	132.88	990.7	416.99	124.06	868.18	350.76	118.3	876.69	431.89	123.78	783.93	400.86	185.85	1438.8	-118.39	184.56	1269.4	-213.48	217.91	1113.2	-274.95	301.06	1003.2	-285.16	405.8	925.73	-224.99	359.49	717.07	229.88	468.5	400.74	146.03	457.46	307.61	194.25	122.26	731.45	-155.81	98.79	562.8	-137.99	168.27	640.95	-136.72	110.08	648.21	-146.54	98.189	464.49	20.416	57.013	340.99	-66.764	-29.706	291.52	-93.941	2.7182	281.14	-41.808	-125.87	34.489	16.341	59.043	484.45	-132.37	462.44	861.38	-256.76	-59.675	224.08	-19.372	375.79	885.88	-280.2	475.4	314.65	135.84	482.01	229.36	125.79	354.5	611.94	233.26	366.61	503.63	70.977	465.83	90.741	63.467	312.73	685.66	248.14	383.08	501.54	224.57	599.17	47.298	99.005	636.05	62.09	133.55	268.96	759.29	262.09	153.54	1546.5	-8.483	73.608	1086.3	302.89	377.82	42.305	94.852	-193.3	40.57	-53.222	-83.589	23.318	-25.903	58.384	1335.8	178.7	20.899	996.47	118.3	116.26	1451.2	66.02	56.752	1135.4	72.665	13.862	1010.5	34.058	-194.01	153.45	78.347	-229.61	158.08	-3.8654	-278.59	168.31	58.028	202.46	1033.5	-177.36	170.29	1557.3	139.25
389	1.945	304.95	1635	0.073415	306.49	1637.6	99.4	322.79	1377.2	58.31	392.25	1221.7	47.751	241.58	963.38	-132.84	315.76	947.09	221.17	212.57	1455.2	234.33	163.25	1294.8	350.87	143.9	1146	399.95	141.11	990.02	417.4	132.67	867.51	351.06	126.87	875.96	432.19	132.82	783.31	401.15	192.9	1439.6	-117.17	190.68	1270.2	-212.48	222.78	1113.8	-274	305.13	1003.3	-284.54	409.59	925.15	-224.77	366.28	717.61	230.61	474.12	400.12	146.31	461.96	307.05	194.38	130.81	731.74	-156.13	107.98	562.89	-139.33	177.11	641.33	-137.41	118.96	648.42	-147.42	107.77	464.09	18.655	64.955	341.35	-68.796	-22.513	293.2	-95.857	9.8952	282.24	-43.81	-124.93	34.554	16.544	68.381	484.66	-134.19	465.67	860.41	-256.75	-53.221	225.97	-21.352	379.1	885.45	-279.83	479.87	313.96	135.94	485.32	228.62	125.7	361.27	612.48	234.04	374.13	504.71	71.289	467	90.282	63.239	319.51	686.23	248.81	389.74	501.66	225.16	600.03	44.716	98.443	637.42	58.985	132.78	275.75	759.91	262.66	160.39	1547	-7.1025	81.699	1085.6	303.41	378.46	42.912	94.951	-191.13	42.494	-53.441	-83.644	23.071	-25.851	65.376	1335.9	179.7	27.983	996.64	118.35	123.26	1451.7	67.279	63.733	1135.7	72.808	21.108	1010.4	33.81	-188.29	157.21	76.495	-224.03	162.35	-5.6023	-272.16	174.18	56.272	208.1	1034.4	-175.96	177.24	1557.6	140.64
390	1.95	311.76	1635.6	1.4713	313.33	1638	100.8	329.73	1377.7	59.434	399.22	1222.3	48.598	249.33	964.02	-131.94	322.79	948.16	221.45	219.45	1455.2	235.57	170.67	1294.4	351.68	151.77	1145.4	400.46	149.43	989.45	417.79	141.41	866.95	351.34	135.56	875.34	432.47	142.01	782.81	401.41	199.91	1440.5	-115.96	196.77	1271.1	-211.49	227.6	1114.5	-273.05	309.09	1003.5	-283.92	413.22	924.53	-224.55	372.91	718	231.38	479.54	399.47	146.48	466.28	306.45	194.39	139.49	732.08	-156.45	117.38	563.02	-140.7	186.11	641.79	-138.1	128.02	648.67	-148.33	117.62	463.72	16.861	73.201	341.77	-70.877	-14.98	294.93	-97.834	17.414	283.4	-45.877	-123.76	34.744	16.672	77.978	484.9	-136.06	468.7	859.39	-256.74	-46.408	227.9	-23.403	382.24	885.01	-279.45	484.16	313.26	135.92	488.45	227.88	125.47	367.75	612.87	234.75	381.58	505.68	71.477	468.05	89.833	62.912	326.07	686.67	249.42	396.14	501.66	225.64	600.78	42.339	97.805	638.65	56.126	131.94	282.41	760.44	263.22	167.2	1547.5	-5.7408	89.835	1084.9	303.9	379.05	43.462	94.997	-188.61	44.584	-53.731	-83.51	22.792	-25.894	72.333	1336.1	180.67	35.022	996.84	118.38	130.2	1452.2	68.51	70.684	1136	72.973	28.337	1010.3	33.55	-182.17	160.98	74.569	-218.03	166.63	-7.4192	-265.27	180.05	54.429	213.34	1035.4	-174.66	184.17	1557.9	142.01
391	1.955	318.53	1636.2	2.8414	320.15	1638.5	102.16	336.61	1378.2	60.526	406.13	1223	49.412	257.06	964.71	-131.03	329.74	949.31	221.81	226.3	1455.3	236.76	178.08	1294	352.48	159.69	1144.9	400.96	157.81	988.98	418.17	150.28	866.51	351.6	144.36	874.83	432.73	151.34	782.41	401.65	206.86	1441.4	-114.77	202.83	1272.1	-210.52	232.37	1115.3	-272.09	312.96	1003.7	-283.29	416.71	923.89	-224.33	379.39	718.23	232.19	484.73	398.79	146.51	470.45	305.83	194.26	148.29	732.47	-156.78	126.98	563.19	-142.09	195.27	642.31	-138.78	137.23	648.97	-149.25	127.7	463.39	15.054	81.745	342.25	-72.983	-7.1048	296.68	-99.85	25.269	284.6	-47.983	-122.29	35.089	16.698	87.825	485.16	-137.96	471.54	858.29	-256.73	-39.239	229.86	-25.501	385.21	884.57	-279.09	488.25	312.54	135.76	491.41	227.14	125.11	373.95	613.1	235.35	388.9	506.51	71.55	468.99	89.385	62.493	332.41	686.98	249.96	402.28	501.57	226.02	601.43	40.161	97.11	639.76	53.501	131.03	288.91	760.86	263.76	173.97	1548.1	-4.4007	98.002	1084.4	304.39	379.59	43.956	94.991	-185.72	46.844	-54.107	-83.126	22.483	-26.054	79.255	1336.3	181.63	42.013	997.08	118.4	137.07	1452.7	69.711	77.601	1136.4	73.166	35.546	1010.3	33.296	-175.64	164.74	72.583	-211.63	170.91	-9.3047	-257.97	185.89	52.51	218.13	1036.4	-173.49	191.07	1558.3	143.36
392	1.96	325.27	1636.9	4.1792	326.94	1639.1	103.5	343.45	1378.8	61.586	412.98	1223.6	50.194	264.76	965.44	-130.12	336.62	950.52	222.26	233.12	1455.5	237.92	185.5	1293.7	353.26	167.63	1144.6	401.44	166.27	988.62	418.53	159.27	866.18	351.83	153.26	874.42	432.96	160.8	782.13	401.86	213.75	1442.4	-113.6	208.84	1273.1	-209.55	237.09	1116.2	-271.13	316.74	1003.9	-282.67	420.06	923.23	-224.12	385.7	718.3	233.01	489.7	398.09	146.38	474.45	305.18	194	157.19	732.9	-157.1	136.76	563.4	-143.48	204.57	642.9	-139.43	146.6	649.32	-150.17	138.01	463.1	13.257	90.584	342.79	-75.083	1.1131	298.46	-101.88	33.456	285.85	-50.098	-120.47	35.617	16.591	97.911	485.45	-139.87	474.21	857.14	-256.71	-31.719	231.84	-27.62	388.03	884.13	-278.72	492.14	311.81	135.46	494.2	226.39	124.61	379.88	613.17	235.83	396	507.19	71.52	469.84	88.931	61.992	338.53	687.15	250.41	408.17	501.41	226.29	601.99	38.172	96.377	640.76	51.097	130.1	295.24	761.15	264.25	180.7	1548.8	-3.0849	106.19	1083.9	304.86	380.07	44.401	94.935	-182.41	49.281	-54.583	-82.426	22.152	-26.356	86.14	1336.6	182.57	48.952	997.37	118.41	143.88	1453.3	70.882	84.483	1136.9	73.395	42.729	1010.3	33.065	-168.73	168.49	70.554	-204.82	175.17	-11.245	-250.26	191.67	50.53	222.43	1037.5	-172.46	197.94	1558.8	144.68
393	1.965	331.97	1637.6	5.4807	333.7	1639.6	104.79	350.23	1379.5	62.614	419.78	1224.4	50.947	272.43	966.2	-129.2	343.42	951.78	222.79	239.89	1455.8	239.04	192.92	1293.6	354.03	175.6	1144.3	401.91	174.8	988.37	418.86	168.37	865.97	352.04	162.26	874.11	433.17	170.39	781.95	402.04	220.58	1443.5	-112.45	214.81	1274.2	-208.61	241.77	1117.1	-270.17	320.44	1004.1	-282.05	423.28	922.53	-223.9	391.84	718.22	233.81	494.44	397.37	146.1	478.3	304.53	193.62	166.19	733.37	-157.41	146.73	563.66	-144.85	214	643.57	-140.06	156.1	649.7	-151.08	148.52	462.87	11.493	99.709	343.39	-77.148	9.6712	300.25	-103.91	41.963	287.14	-52.189	-118.24	36.35	16.319	108.22	485.75	-141.78	476.7	855.93	-256.69	-23.858	233.85	-29.733	390.71	883.69	-278.37	495.83	311.07	135.03	496.83	225.65	123.99	385.57	613.1	236.2	402.82	507.69	71.4	470.61	88.472	61.425	344.42	687.18	250.76	413.81	501.17	226.44	602.47	36.365	95.624	641.66	48.903	129.15	301.39	761.32	264.69	187.38	1549.5	-1.796	114.38	1083.6	305.32	380.5	44.799	94.837	-178.65	51.899	-55.175	-81.337	21.81	-26.825	92.988	1337	183.5	55.836	997.71	118.44	150.62	1453.9	72.023	91.327	1137.4	73.662	49.878	1010.4	32.874	-161.45	172.22	68.504	-197.62	179.38	-13.222	-242.17	197.36	48.504	226.21	1038.7	-171.59	204.78	1559.4	145.98
